<svg xmlns="http://www.w3.org/2000/svg" width="32" height="32" viewBox="0 0 32 32">
  <rect width="32" height="32" rx="4" fill="#4e73df"/>
  <path d="M8 8h6v6H8z" fill="white"/>
  <path d="M18 8h6v6h-6z" fill="white"/>
  <path d="M8 18h6v6H8z" fill="white"/>
  <path d="M18 18h2v2h-2z" fill="white"/>
  <path d="M22 18h2v2h-2z" fill="white"/>
  <path d="M18 22h2v2h-2z" fill="white"/>
  <path d="M22 22h2v2h-2z" fill="white"/>
  <path d="M16 8h1v1h-1z" fill="white"/>
  <path d="M16 13h1v1h-1z" fill="white"/>
  <path d="M8 16h1v1h-1z" fill="white"/>
  <path d="M13 16h1v1h-1z" fill="white"/>
</svg>